<?xml version="1.0" standalone="no"?>
<!DOCTYPE svg PUBLIC "-//W3C//DTD SVG 20010904//EN"
 "http://www.w3.org/TR/2001/REC-SVG-20010904/DTD/svg10.dtd">
<svg version="1.0" xmlns="http://www.w3.org/2000/svg"
 width="609.000000pt" height="609.000000pt" viewBox="0 0 609.000000 609.000000"
 preserveAspectRatio="xMidYMid meet">
<metadata>
Created by potrace 1.14, written by Peter Selinger 2001-2017
</metadata>
<g transform="translate(0.000000,609.000000) scale(0.100000,-0.100000)"
fill="#000000" stroke="none">
<path d="M2526 6083 c-1 -1 -24 -5 -51 -9 -28 -3 -57 -8 -65 -9 -112 -24 -163
-36 -169 -40 -4 -2 -18 -6 -32 -9 -37 -7 -235 -80 -313 -115 -132 -60 -141
-65 -166 -82 -14 -9 -27 -16 -30 -15 -6 1 -250 -142 -284 -167 -6 -4 -49 -34
-96 -67 -47 -32 -89 -63 -95 -67 -5 -5 -46 -37 -90 -72 -176 -139 -356 -313
-520 -506 -96 -113 -242 -324 -304 -440 -17 -32 -35 -63 -39 -69 -45 -59 -196
-485 -178 -503 1 -2 29 18 62 44 152 119 431 278 687 392 26 11 66 30 90 40
23 10 92 40 152 66 61 26 124 53 140 60 17 7 53 23 80 35 198 87 396 184 502
246 51 30 97 54 102 54 6 0 11 5 11 10 0 6 4 10 10 10 15 0 174 116 254 184
190 164 310 328 408 561 16 39 47 135 43 135 -2 0 2 18 10 40 8 22 17 59 20
82 4 23 8 45 10 48 2 3 6 42 10 88 l7 83 -82 -3 c-45 -2 -83 -4 -84 -5z"/>
<path d="M3195 6043 c3 -26 8 -70 11 -98 11 -101 47 -223 94 -320 38 -79 62
-114 116 -167 37 -38 71 -68 75 -68 4 0 14 -6 21 -14 42 -41 295 -136 425
-160 15 -2 53 -9 83 -15 30 -6 66 -12 80 -15 14 -2 75 -14 135 -26 61 -12 119
-24 130 -26 11 -2 31 -6 44 -9 39 -7 93 -26 138 -46 121 -54 151 -141 97 -277
-15 -37 -73 -143 -129 -237 -155 -258 -195 -355 -189 -464 8 -126 59 -203 176
-262 48 -24 153 -59 223 -75 11 -2 31 -6 45 -10 14 -3 36 -7 50 -8 14 -2 34
-6 45 -9 11 -4 36 -9 55 -12 102 -17 271 -71 348 -111 137 -73 184 -132 185
-237 1 -101 -17 -166 -79 -290 -31 -60 -116 -188 -153 -231 -60 -69 -167 -182
-185 -195 -11 -8 -27 -22 -36 -31 -13 -13 -48 -41 -105 -82 -5 -4 -24 -19 -41
-33 -18 -14 -36 -25 -42 -25 -6 0 -12 -3 -14 -7 -8 -19 -232 -132 -305 -155
-56 -17 -54 -26 5 -23 26 2 103 6 172 10 69 4 136 8 150 10 14 2 48 6 75 9
117 14 129 16 205 31 14 3 41 8 60 11 19 3 42 7 50 10 8 3 26 8 40 10 74 14
278 79 355 113 244 108 372 207 438 341 31 64 32 67 31 200 0 121 -4 188 -20
330 -3 25 -7 56 -9 70 -3 14 -12 66 -21 115 -8 50 -22 117 -30 150 -8 33 -16
67 -18 76 -3 9 -10 36 -16 60 -14 50 -17 62 -18 69 -1 3 -11 32 -22 65 -12 33
-23 67 -25 75 -9 41 -85 222 -150 355 -79 163 -121 238 -202 359 -29 43 -53
80 -53 82 0 2 -6 12 -14 21 -8 10 -49 62 -91 116 -43 54 -96 119 -119 144 -59
66 -224 229 -270 266 -21 18 -57 49 -80 69 -22 21 -46 38 -52 38 -7 0 -14 7
-18 15 -3 8 -12 15 -20 15 -8 0 -16 3 -18 8 -5 12 -80 66 -148 107 -36 21 -67
41 -70 44 -14 16 -248 134 -350 178 -86 37 -261 100 -300 108 -8 2 -53 13
-100 25 -47 12 -107 26 -135 30 -27 5 -59 11 -70 13 -11 3 -47 8 -80 12 -32 4
-68 9 -80 11 -11 2 -80 7 -153 10 l-132 6 5 -49z"/>
<path d="M3547 5124 c-1 -1 -31 -4 -67 -8 -36 -3 -80 -10 -98 -15 -18 -5 -36
-10 -40 -11 -36 -7 -92 -26 -92 -31 0 -4 12 -15 28 -24 29 -19 204 -146 212
-155 14 -14 92 -55 225 -115 41 -19 83 -51 135 -103 67 -68 119 -116 203 -189
35 -30 146 -87 155 -79 15 16 18 181 3 252 -32 157 -90 252 -220 357 -29 23
-150 80 -186 87 -3 1 -19 6 -37 11 -42 12 -212 31 -221 23z"/>
<path d="M2937 4994 c-1 -1 -36 -5 -77 -8 -73 -7 -89 -9 -160 -21 -130 -23
-317 -81 -439 -137 -65 -30 -214 -113 -241 -135 -8 -6 -39 -29 -67 -51 -270
-200 -452 -510 -477 -814 -8 -91 -16 -85 104 -74 101 9 241 57 262 90 4 6 8 7
8 3 0 -10 17 4 89 73 61 59 141 169 223 307 27 46 62 99 79 117 68 78 185 131
429 196 241 64 311 99 357 178 24 40 26 54 27 161 l2 116 -59 0 c-32 0 -59 -1
-60 -1z"/>
<path d="M3289 4376 c-2 -2 -47 -6 -99 -9 -52 -3 -135 -15 -185 -27 -98 -24
-289 -111 -299 -137 -11 -29 131 -182 231 -249 82 -54 241 -111 313 -112 8 0
29 -2 45 -5 17 -3 51 -9 78 -13 26 -3 50 -10 53 -15 3 -5 12 -9 21 -9 8 0 90
-37 182 -82 91 -46 168 -83 171 -83 3 0 10 -3 15 -6 18 -11 89 -23 130 -21 36
2 82 17 95 33 3 3 27 20 54 38 44 30 47 36 42 63 -8 41 -75 172 -124 245 -144
212 -385 351 -655 378 -26 2 -51 7 -56 9 -4 3 -10 4 -12 2z"/>
<path d="M951 4181 c-39 -41 -89 -125 -97 -163 -8 -37 -5 -141 4 -173 5 -16
28 -68 50 -115 22 -47 43 -98 45 -115 7 -48 -18 -93 -92 -165 -130 -126 -186
-239 -186 -375 1 -68 5 -89 30 -140 39 -81 124 -161 211 -202 66 -30 102 -44
107 -41 1 1 11 -4 22 -10 12 -5 41 -13 65 -17 25 -4 48 -9 53 -12 12 -8 94
-15 202 -17 95 -2 235 14 285 32 l24 9 -24 19 c-56 44 -189 185 -224 238 -20
31 -49 89 -63 129 -35 99 -30 208 16 320 17 43 31 89 31 102 0 35 -50 119
-105 177 -28 29 -71 78 -95 108 -25 30 -53 63 -62 74 -10 11 -18 24 -18 30 0
5 -6 17 -14 25 -40 44 -121 253 -118 304 1 25 -6 22 -47 -22z"/>
<path d="M2627 3774 c-37 -8 -80 -20 -95 -26 -15 -6 -29 -12 -32 -13 -3 0 -25
-11 -50 -23 -194 -96 -356 -282 -414 -476 l-14 -45 72 4 c166 9 250 48 299
140 9 17 32 64 52 107 62 135 142 177 285 150 41 -7 81 -18 87 -24 7 -6 13 -8
13 -5 0 4 19 -1 43 -9 91 -32 174 -35 243 -9 34 13 45 23 54 50 20 61 11 77
-60 113 -56 28 -123 52 -140 51 -3 0 -18 5 -35 12 -45 18 -229 19 -308 3z"/>
<path d="M4449 3688 c-3 -46 3 -184 10 -197 4 -9 7 -65 6 -126 0 -96 -4 -115
-24 -150 -29 -50 -90 -105 -155 -140 -28 -15 -60 -36 -71 -45 -11 -10 -42 -38
-70 -62 -167 -145 -260 -270 -326 -436 -72 -185 -101 -238 -156 -295 -26 -27
-4 -35 86 -32 91 2 123 10 176 43 64 40 112 100 160 199 69 141 105 160 250
134 117 -21 120 -21 213 25 51 25 106 61 134 88 47 46 93 128 102 182 21 125
24 196 12 279 -4 28 -9 59 -11 70 -13 97 -116 278 -207 366 -80 77 -128 113
-129 97z"/>
<path d="M3854 3311 c-5 -5 -15 -7 -89 -16 -27 -4 -63 -9 -80 -11 -16 -3 -83
-7 -147 -9 -114 -2 -118 -3 -185 -41 -81 -45 -154 -64 -220 -56 -26 3 -84 6
-128 6 -74 1 -83 -1 -125 -31 -25 -17 -57 -44 -71 -60 -31 -32 -109 -152 -109
-165 0 -12 145 -78 230 -106 158 -52 245 -67 380 -66 104 0 151 7 225 33 203
72 335 247 361 481 5 41 3 46 -16 46 -11 0 -23 -2 -26 -5z"/>
<path d="M358 2756 c-1 -2 -41 -6 -88 -10 -124 -10 -174 -18 -237 -37 -37 -12
-36 -2 -8 -164 13 -75 17 -92 30 -155 3 -14 7 -34 9 -45 2 -11 16 -60 31 -110
15 -49 30 -103 35 -120 28 -108 117 -324 194 -470 65 -123 165 -287 178 -293
5 -2 8 -10 8 -17 0 -7 3 -15 8 -17 4 -1 25 -28 47 -58 22 -30 42 -57 45 -60 3
-3 25 -30 50 -60 66 -82 294 -307 385 -380 44 -35 82 -67 85 -70 3 -3 23 -18
46 -33 22 -15 50 -36 62 -47 12 -11 23 -20 26 -20 3 0 41 -25 85 -55 44 -30
85 -55 91 -55 5 0 10 -4 10 -10 0 -5 4 -10 9 -10 5 0 45 -21 88 -48 43 -26 92
-54 108 -62 17 -8 41 -22 54 -32 45 -34 40 -18 -24 73 -66 93 -154 257 -194
364 -13 33 -27 69 -32 80 -28 66 -112 351 -143 490 -1 6 -5 19 -9 30 -3 11 -8
31 -11 45 -2 14 -12 57 -21 95 -9 39 -19 79 -21 90 -10 55 -107 402 -135 485
-37 113 -111 272 -164 355 -21 33 -72 94 -114 135 -112 111 -238 171 -391 185
-36 4 -70 8 -77 10 -6 2 -13 2 -15 1z"/>
<path d="M2146 2728 c1 -13 3 -25 4 -28 1 -3 2 -9 1 -14 -1 -4 4 -14 10 -22 6
-8 9 -14 5 -14 -3 0 0 -16 8 -35 8 -19 13 -35 10 -35 -7 0 46 -100 80 -150
163 -241 492 -360 791 -285 97 24 125 40 118 65 -3 11 -9 20 -13 20 -4 0 -13
12 -19 28 -38 88 -151 159 -316 197 -5 2 -37 10 -70 19 -33 9 -69 19 -80 22
-11 3 -24 6 -30 8 -5 1 -27 10 -49 19 -21 9 -42 17 -47 17 -5 0 -9 5 -9 10 0
6 -7 10 -16 10 -9 0 -28 8 -42 18 -79 51 -255 150 -282 157 -14 4 -32 9 -41
11 -11 3 -15 -2 -13 -18z"/>
<path d="M1539 2313 c0 -4 -2 -17 -4 -28 -18 -93 -24 -364 -11 -452 18 -123
57 -222 108 -272 16 -16 64 -44 106 -62 73 -31 181 -91 217 -120 29 -24 159
-152 186 -184 13 -16 53 -70 88 -120 56 -78 94 -119 111 -120 3 0 10 -4 17 -8
21 -13 106 -37 158 -44 97 -12 408 -4 434 11 3 2 28 7 55 10 27 4 57 11 68 17
10 5 18 8 18 5 0 -8 130 39 185 66 124 60 240 151 397 309 118 118 170 196
188 278 29 140 -24 299 -122 368 -35 24 -51 28 -107 28 -92 -1 -147 -30 -246
-130 -157 -158 -317 -260 -475 -301 -102 -27 -294 -23 -390 8 -201 65 -280
119 -535 369 -241 236 -247 241 -350 316 -85 61 -95 66 -96 56z"/>
<path d="M5940 2186 c-3 -2 -43 -7 -90 -10 -47 -3 -94 -7 -105 -10 -18 -3
-106 -15 -160 -21 -57 -6 -123 -18 -225 -40 -41 -9 -85 -18 -97 -21 -12 -2
-33 -8 -45 -13 -13 -5 -26 -9 -31 -10 -44 -6 -198 -56 -311 -101 -201 -80
-412 -204 -566 -335 -44 -37 -269 -263 -294 -296 -88 -114 -202 -272 -301
-419 -105 -154 -157 -228 -198 -280 -7 -8 -28 -35 -47 -60 -73 -95 -194 -220
-280 -289 -25 -20 -47 -38 -50 -41 -33 -36 -322 -190 -355 -190 -8 0 -17 -5
-20 -10 -4 -6 -10 -8 -14 -5 -5 2 -17 -2 -27 -9 -17 -13 -16 -14 14 -12 17 1
32 -1 32 -5 0 -7 449 -4 515 4 22 3 65 8 95 12 70 8 351 60 358 65 2 3 5 3 52
14 19 4 49 12 65 17 164 50 246 79 346 120 157 64 429 202 437 222 2 4 8 7 13
7 9 0 119 69 129 81 3 3 20 14 38 24 17 11 32 23 32 27 0 4 5 8 11 8 35 0 390
326 499 459 25 30 53 63 63 73 9 10 17 20 17 22 0 3 26 40 58 83 126 169 279
445 351 633 18 47 39 101 46 120 42 108 65 207 45 186z"/>
<path d="M1772 853 c62 -235 187 -378 383 -439 55 -17 185 -22 273 -11 63 8
211 55 233 74 8 7 20 13 25 13 13 0 144 79 163 98 8 7 24 20 37 29 21 13 36
41 17 30 -5 -3 -78 -8 -163 -12 -234 -12 -232 -12 -485 49 -117 28 -290 97
-405 161 -45 25 -84 45 -85 45 -2 0 1 -17 7 -37z"/>
</g>
</svg>
