<?xml version="1.0" encoding="UTF-8"?>
<svg xmlns="http://www.w3.org/2000/svg" viewBox="0 0 608.49 608.79">
  <defs>
    <style>
      .cls-1 {
        fill: #c196f5;
        stroke-width: 0px;
      }

      .cls-2 {
        isolation: isolate;
      }

      .cls-3 {
        mix-blend-mode: color-burn;
      }
    </style>
  </defs>
  <g class="cls-2">
    <g id="Layer_1" data-name="Layer 1">
      <g class="cls-3">
        <path class="cls-1" d="m154.02,376.5c5.55,3.83,11.12,7.44,16.39,11.63,22.68,18.01,47.19,52.61,76.14,61.83,31.11,9.91,54.99,4.54,83.75-19.2,6.26-5.16,9-10.08,13.05-13.34,20.41-16.45,37.87-7.92,43.14,15.53,4.28,19.05-6.02,31.33-20.33,45.35-23.61,23.12-39.97,34.96-74.94,39.63-26.23,3.5-55.68,1.83-63.93-10.48-14.56-21.71-28.48-39.56-56.18-49.58-26.5-9.58-19.18-67.22-17.1-81.37Z"/>
        <path class="cls-1" d="m8.87,218.66C29.93,109.33,173.09-1.08,269.49,0,259.93,145.85,95.28,145,8.87,218.66Z"/>
        <path class="cls-1" d="m596.07,390.37c-49.91,169.27-211.01,229.24-326.58,216.85,132.03-41.71,84.99-200.41,326.58-216.85Z"/>
        <path class="cls-1" d="m147.31,234.27c0-69.06,70.83-124.93,158.36-124.93v18.25c0,32.98-66.5,20.93-85.1,51.69-19.11,31.61-30.89,54.99-73.26,54.99Z"/>
        <path class="cls-1" d="m269.49,188.97c39.75-29.05,120.36-26.32,145.46,48.09l-10.51,7.68c-18.99,13.87-45.68-16.68-71.94-19.11-26.18-2.41-43.34-9.73-63.02-36.66Z"/>
        <path class="cls-1" d="m176.33,579.92C115.62,546.9,19.93,487.31,0,338.82c147.27-39.07,101.88,155.37,176.33,241.1Z"/>
        <path class="cls-1" d="m202.4,289.56c9.22-39.25,60.76-80.55,116.03-47.69,0,0-.22,8.9-2.44,10.37-21.1,14.09-44.41-13.91-63.1.72-16.95,13.27-2.89,37.43-50.5,36.59Z"/>
        <path class="cls-1" d="m390.62,277.07c-4.72,57.09-56.96,72.43-121.13,39.53,0,0,7.29-12.21,9.49-14.8,20.93-24.7,30.41-1.12,54.21-15.06,19.59-11.47,5.82.42,57.42-9.67Z"/>
        <path class="cls-1" d="m99.6,186.51c2.33,22.97,16.41,41.69,34.32,59.68,5.13,5.15,8.89,14.32,6.11,19.72-15.64,30.32.58,53.75,27.71,75.45-27.97,8.94-67.81,3.26-86.45-12.18-17.83-14.77-18.85-37.35-2.46-57.53,2.63-3.24,5.43-6.51,8.89-9.29,9.25-7.42,9.89-14.71,4.34-24.11-10.44-17.7-11.38-35.54,7.54-51.74Z"/>
        <path class="cls-1" d="m364.55,387.63c16.69-15.96,13.45-33.88,30.79-55.83,8.43-10.67,26.85-26.74,30.28-28.52,32.34-16.76,18.79-29.81,19.25-64.54,24.23,16.58,36.46,40.36,35.72,64.54-.7,23.14-4.12,37.34-32.71,48.33-3.9,1.5-11.88-.18-16.19-1.21-11.54-2.74-17.68,1.23-21.69,11.38-7.56,19.11-21.05,30.82-45.45,25.84Z"/>
        <path class="cls-1" d="m318.42,390c-34.18,16.71-95.15,3.72-104.16-56.3,0,0,9.84,2.87,12.75,4.6,30.87,18.41,29.03,17.79,48.68,23.19,19.59,5.39,31.4,5.35,42.73,28.51Z"/>
        <path class="cls-1" d="m324.32,103.03c46.85-18.01,106.39,1.43,97.35,67.4,0,0-9.47-3.93-12.17-5.97-28.67-21.68-22.41-26.16-41.35-33.69-18.88-7.5-18.81-11.39-43.83-27.74Z"/>
        <path class="cls-1" d="m292.1,544.37c-41.07,36.11-103.13,37.66-115.77-24.84,0,0,8.66,4.75,11.61,6.41,19.55,11.02,43.74,15.79,48.07,16.9,21.02,5.44,28.08,2.35,56.09,1.52Z"/>
        <path class="cls-1" d="m608.49,313.75C608.49,140.34,479.21,0,319.46,0c4.93,89.67,62.13,82.03,125.58,97.48,56.93,13.87-12.25,62.4-12.25,99.33,0,46.48,69.28,28.51,105.64,57.83,29.02,23.38-28.8,104.64-95.7,123.63,91.62,0,165.76-30.39,165.76-67.95v3.42Z"/>
      </g>
    </g>
  </g>
</svg>