<?xml version="1.0" encoding="UTF-8"?>
<svg id="Layer_1" data-name="Layer 1" xmlns="http://www.w3.org/2000/svg" viewBox="0 0 904.47 183.58">
  <defs>
    <style>
      .cls-1 {
        fill: #c196f5;
        stroke-width: 0px;
      }
    </style>
  </defs>
  <path class="cls-1" d="m120.01,32.76v28.74c-6.98-9.47-17.77-14.95-29.57-14.95-25.25,0-40.03,21.09-40.03,44.85,0,22.42,11.13,45.51,36.54,45.51,12.13,0,23.59-6.15,29.9-16.61l16.78,16.61V.37l-23.09,19.43c10.13-.33,9.47,4.49,9.47,12.96Zm0,64.61c0,16.11-8.47,36.54-27.41,36.54-21.43,0-27.91-26.08-27.91-43.02s7.97-42.69,29.23-42.69c19.77,0,26.08,23.25,26.08,39.2v9.97Z"/>
  <path class="cls-1" d="m193.94,133.64c-23.25,0-31.89-22.76-31.89-42.69,0-6.15.66-12.29,2.49-18.11h58.3c-3.65-16.44-17.61-26.41-34.22-26.41-25.58,0-40.86,20.76-40.86,45.01s13.62,45.68,40.03,45.68c17.11,0,34.05-10.13,39.37-26.91l-1.33-.33c-4.65,13.79-17.27,23.75-31.89,23.75Zm-2.49-85.38c8.97,0,20.6,5.15,20.6,15.61,0,4.32-2.66,7.47-7.14,7.47h-39.86c3.82-11.63,13.12-23.09,26.41-23.09Z"/>
  <path class="cls-1" d="m283.36,46.43c8.12,0,18.61,1.35,18.61,11.67,0,3.55-1.02,6.94-2.37,10.15l-20.64,50.59-22.84-54.31c-.85-2.2-1.35-5.08-1.35-7.44,0-8.63,7.61-10.66,14.89-10.66h-54.48c17.43,0,22,8.12,28.09,22.84l-.68-1.69,29.61,69.54h1.01l28.43-69.54-.68,1.69c5.75-14.21,11.51-22.84,28.09-22.84h-45.68Z"/>
  <path class="cls-1" d="m365.53,133.64c-23.25,0-31.89-22.76-31.89-42.69,0-6.15.66-12.29,2.49-18.11h58.3c-3.65-16.44-17.61-26.41-34.22-26.41-25.58,0-40.86,20.76-40.86,45.01s13.62,45.68,40.03,45.68c17.11,0,34.05-10.13,39.37-26.91l-1.33-.33c-4.65,13.79-17.27,23.75-31.89,23.75Zm-2.49-85.38c8.97,0,20.6,5.15,20.6,15.61,0,4.32-2.66,7.47-7.14,7.47h-39.86c3.82-11.63,13.12-23.09,26.41-23.09Z"/>
  <path class="cls-1" d="m427.87,115.79l.17-115.79-23.7,19.81c10.33,0,9.82,4.06,9.82,13.2v80.92c0,10.5-2.03,19.64-13.04,23.19h39.61c-9.99-3.22-12.87-11.51-12.87-21.33Z"/>
  <path class="cls-1" d="m594.26,46.38c-14.95,0-25.25,6.48-34.38,14.95v-14.12l-23.09,19.27c7.31,0,9.14,1.16,9.47,8.64-5.32,5.48-10.8,10.8-17.27,14.95-.5-24.75-17.27-43.85-42.85-43.85s-42.69,19.77-42.69,45.18,16.61,45.35,42.69,45.35,42.69-19.6,42.85-44.85c6.48-3.99,12.13-9.14,17.27-14.45v83.38c0,13.79-3.99,19.93-12.62,22.76h38.7c-8.31-2.66-12.29-8.31-12.62-20.93v-40.53c7.14,9.8,18.27,14.45,29.4,14.62,51.82,1.16,53.48-88.86,5.15-90.36Zm-106.47,88.86c-22.42,0-30.23-28.24-30.23-46.01,0-16.44,6.31-41.53,27.24-41.53-10.96,2.99-17.94,14.12-17.94,25.41.17,17.94,14.78,27.07,32.06,27.07,5.81,0,10.96-.83,15.78-2.16-1,16.11-7.97,37.21-26.91,37.21Zm11.13-36.38c-16.28,0-30.4-8.14-30.4-25.91,0-11.79,8.31-24.25,20.26-24.91,20.93,3.49,26.08,31.39,26.08,48.67-4.82,1.33-10.13,2.16-15.95,2.16Zm87.04,36.21c-12.62,0-24.92-11.13-26.08-35.05v-36.54c8.14-7.64,16.78-13.45,28.4-13.45,36.54,0,35.88,85.04-2.33,85.04Z"/>
  <path class="cls-1" d="m688.28,133.25c-23.25,0-31.89-22.76-31.89-42.69,0-6.15.66-12.29,2.49-18.1h58.3c-3.65-16.44-17.61-26.41-34.22-26.41-25.58,0-40.86,20.76-40.86,45.01s13.62,45.68,40.03,45.68c17.11,0,34.05-10.13,39.37-26.91l-1.33-.33c-4.65,13.79-17.27,23.75-31.89,23.75Zm-2.49-85.38c8.97,0,20.6,5.15,20.6,15.61,0,4.32-2.66,7.47-7.14,7.47h-39.86c3.82-11.63,13.12-23.09,26.41-23.09Z"/>
  <path class="cls-1" d="m748.58,104.73l.05-73.5h17.27v-1.49h-17.27l.11-29.74-22.89,31.35s2.93-1.45,5.09-1.43c1.42.01,2.55.4,3.35.83.47.25.9.49.9.8-.02,18.22-.07,73.18-.07,73.18,0,18.94,4.32,32.39,25.41,32.39,4.15,0,7.02-.68,11-1.58l1.46-.41c-1.83.17-3.82.33-5.65.33-18.94,0-18.77-16.11-18.77-30.73Z"/>
  <path class="cls-1" d="m833.84,46.23c-15.58,0-24.48,11.47-30.64,24.31v-23.79l-23.79,20.03c10.44,0,9.76,4.11,9.76,13.35v34.41c0,10.27-2.4,19.17-13.01,22.6h40.05c-11.13-3.59-13.01-12.84-13.01-23.45v-39.37c3.59-9.07,11.47-17.8,21.91-17.8,3.77,0,7.36,1.2,10.27,3.59l4.11-13.35c-1.88-.34-3.77-.51-5.65-.51Z"/>
  <path class="cls-1" d="m874.74,46.76c-9.8,0-22.59,2.82-29.57,10.3v20.43h.33c1.49-13.29,8.8-29.07,24.25-29.07,11.29,0,21.09,6.64,21.09,18.77,0,23.09-54.65,21.09-54.65,49.66,0,14.12,11.13,20.26,24.08,20.26,11.13,0,23.25-4.48,31.23-12.46l12.96,12.46v-69.76c0-15.61-16.94-20.6-29.73-20.6Zm16.11,76.9c-5.98,5.81-14.28,9.8-22.76,9.8-11.63,0-18.1-7.81-18.1-19.1,0-23.59,35.05-25.08,40.86-42.02v51.32Z"/>
  <path class="cls-1" d="m9.69,128.26c1.57.57,2.36,1.58,3.18,2.81.47.7,2.14.79,3.62.59,1.98-.26,2.91-.93,4.25-2.24.81-.79,1.39-1.49,1.15-2.57-.3-1.33-1.29-1.81-2.44-.88-.23.18-.39.46-.74.76-1.63,1.34-2.98,1.65-4.74,1.09-1.64-.52-3.03-2.48-4.31-3.5-.3-.24-.61-.44-.93-.66-.12.8-.53,4.07.97,4.61Z"/>
  <path class="cls-1" d="m15.27,102.32c-5.46-.06-13.57,6.19-14.77,12.39,4.9-4.17,14.22-4.13,14.77-12.39Z"/>
  <path class="cls-1" d="m15.27,136.73c6.55.7,15.67-2.7,18.5-12.29-13.69.93-11.02,9.92-18.5,12.29Z"/>
  <path class="cls-1" d="m8.35,115.6c2.4,0,3.07-1.32,4.15-3.12,1.05-1.74,4.82-1.06,4.82-2.93v-1.03c-4.96,0-8.97,3.17-8.97,7.08Z"/>
  <path class="cls-1" d="m18.84,115.11c1.49.14,3,1.87,4.08,1.08l.6-.43c-1.42-4.22-5.99-4.37-8.24-2.72,1.12,1.53,2.09,1.94,3.57,2.08Z"/>
  <path class="cls-1" d="m0,121.52c1.13,8.41,6.55,11.79,9.99,13.66-4.22-4.86-1.65-15.87-9.99-13.66Z"/>
  <path class="cls-1" d="m11.47,118.73c2.7.05,1.9-1.32,2.86-2.07,1.06-.83,2.38.76,3.57-.04.13-.08.14-.59.14-.59-3.13-1.86-6.05.48-6.57,2.7Z"/>
  <path class="cls-1" d="m22.13,118.02c-2.92.57-2.14-.1-3.25.55-1.35.79-1.89-.55-3.07.85-.12.15-.54.84-.54.84,3.64,1.86,6.59,1,6.86-2.24Z"/>
  <path class="cls-1" d="m4.47,117.71c-.93,1.14-.87,2.42.14,3.26,1.06.87,3.31,1.2,4.9.69-1.54-1.23-2.46-2.56-1.57-4.27.16-.31-.06-.83-.35-1.12-1.01-1.02-1.81-2.08-1.94-3.38-1.07.92-1.02,1.93-.43,2.93.31.53.28.95-.25,1.37-.2.16-.35.34-.5.53Z"/>
  <path class="cls-1" d="m24.11,119.51c-.19.1-1.24,1.01-1.72,1.62-.98,1.24-.8,2.26-1.74,3.16,1.38.28,2.15-.38,2.57-1.46.23-.58.58-.8,1.23-.64.24.06.7.15.92.07,1.62-.62,1.81-1.43,1.85-2.74.04-1.37-.65-2.72-2.02-3.66-.03,1.97.74,2.71-1.09,3.66Z"/>
  <path class="cls-1" d="m12.86,121.49c-.17-.1-.72-.26-.72-.26.51,3.4,3.96,4.14,5.9,3.19-.64-1.31-1.31-1.31-2.42-1.62-1.11-.31-1.01-.27-2.76-1.31Z"/>
  <path class="cls-1" d="m18.37,108.16c1.42.93,1.41,1.15,2.48,1.57,1.07.43.72.68,2.34,1.91.15.12.69.34.69.34.51-3.74-2.86-4.84-5.52-3.82Z"/>
  <path class="cls-1" d="m13.37,133.08c-.24-.06-1.62-.33-2.72-.96-.17-.09-.66-.36-.66-.36.72,3.54,4.23,3.45,6.56,1.41-1.59.05-1.99.22-3.18-.09Z"/>
  <path class="cls-1" d="m18.1,102.32c.28,5.08,3.85,3.79,7.11,5.52,2.93,1.56.33,3.1.33,5.19,0,2.63,2.9,2.05,4.96,3.71,1.64,1.32-1.35,6.61-5.14,7.69,5.16,0,9.06-2.38,9.1-4.5-.08-9.75-7.37-17.61-16.37-17.61Z"/>
  <path class="cls-1" d="m34.47,120.1v-.19s0,.02,0,.03c0,.05,0,.11,0,.16Z"/>
</svg>