<svg id="Layer_1" data-name="Layer 1" xmlns="http://www.w3.org/2000/svg" viewBox="0 0 454.39 570.03"><defs><style>.cls-1{fill:#f8f5f3;}</style></defs><path class="cls-1" d="M382.45,468.47h-2.91c0,50.52,9,79.27,17.14,98.65h-339c8.16-19.38,17.13-48.13,17.13-98.65H71.94c0,51.48-9,79.2-17.76,99.53l-.88,2H401.1l-.88-2C391.43,547.67,382.45,520,382.45,468.47Z"/><path class="cls-1" d="M431.22,174.84H379.1c-9.42-45.74-19-86.12-39.08-117C316.94,22.44,281.68,3.55,232.15.07V0h-2.91V.07c-49.48,3.45-84.78,22.34-107.87,57.77-20.12,30.88-29.66,71.26-39.08,117H23.17A23.24,23.24,0,0,0,0,198V445.3a23.24,23.24,0,0,0,23.17,23.17h162c-.74,54.58-25.48,98.35-56,98.35h196c-30.5,0-55.25-43.77-56-98.35h162a23.24,23.24,0,0,0,23.17-23.17V198A23.23,23.23,0,0,0,431.22,174.84ZM230.7,54.84c3,.55,35.48,6.76,54.63,21.4,17.92,13.71,23.43,28.2,27.21,45.23h-.06a121.7,121.7,0,0,1-12.68-2.84l-3-.77c-11.55-2.86-28.45-6.18-41.95-2-14.68,4.49-14.68,4.49-16.29,4.89a46.93,46.93,0,0,1-7.38.35h-.79a48.63,48.63,0,0,1-7.48-.35c-1.61-.4-1.61-.4-16.29-4.89-13.5-4.13-30.41-.8-41.95,2l-3,.77A121.58,121.58,0,0,1,149,121.47h-.16c3.78-17,9.28-31.53,27.21-45.24C195.2,61.6,227.67,55.39,230.7,54.84Zm80.75,68.35-.06,4.38c-1.28.7-4.45,2.6-5.22,4.53a67.35,67.35,0,0,0-2.95,11.4c-1,5.75-2.69,10.83-4.75,13.93-.3.44-.58.87-.86,1.31-2.06,3.22-4,6.26-10.61,9.4A31.59,31.59,0,0,1,269.54,171c-6.06-.49-13.76-1.7-19.54-6.69-5.58-4.82-8.13-7-11-16.1a71.61,71.61,0,0,1-2.76-12.71l-.08-.53c-.17-1.18-.27-2.16-.34-3-.23-2.37-.37-3.79-2.15-4.53a6.71,6.71,0,0,0-5.94,0c-1.77.74-1.91,2.16-2.14,4.53-.07.81-.17,1.79-.34,3l-.08.54a71.52,71.52,0,0,1-2.76,12.7c-2.83,9.09-5.38,11.28-11,16.1-5.78,5-13.48,6.2-19.54,6.69a31.59,31.59,0,0,1-17.46-2.84c-6.6-3.14-8.55-6.18-10.62-9.4l-.85-1.31c-2.06-3.1-3.8-8.17-4.76-13.93a66.53,66.53,0,0,0-2.94-11.4c-.77-1.93-3.94-3.83-5.22-4.53l-.06-4.38c3.14-.46,8.27-1.79,12.1-2.77l3-.77c11.33-2.8,27.9-6.07,41-2.07,14.73,4.49,14.73,4.49,16.39,4.91a51.35,51.35,0,0,0,8.21.45l8.32-.45c1.66-.42,1.66-.42,16.38-4.91,13.07-4,29.64-.73,41,2.07l3,.76C303.18,121.4,308.31,122.73,311.45,123.19Zm-173.3,51.65H85.26c16.66-81,34.59-164.19,144-171.87V52.14c-6.45,1.23-36.29,7.52-55,21.79-20.7,15.83-25.61,33.26-29.51,52.77-.4,2-.77,3.76-1.11,5.39a167.41,167.41,0,0,0-3.75,27.38C139.19,169.69,138.5,173.47,138.15,174.84Zm53.68,142.65c17.12-4.55,11.84,18.06,20.5,28C205.27,341.68,194.14,334.75,191.83,317.49Zm51.72-11.64a8.8,8.8,0,0,1,4.15,7.5c-.08,2.69-.48,4.34-3.8,5.62a4.05,4.05,0,0,1-1.88-.14,1.89,1.89,0,0,0-2.53,1.33c-.88,2.22-2.44,3.58-5.28,3,1.94-1.86,1.56-3.94,3.58-6.49a21.6,21.6,0,0,1,3.52-3.32C245.07,311.41,243.49,309.89,243.55,305.85Zm-41-.06c-1.21-2.05-1.32-4.13.88-6,.27,2.67,1.9,4.85,4,6.94a2.34,2.34,0,0,1,.71,2.29c-1.82,3.52.06,6.25,3.22,8.77-3.25,1-7.89.38-10.05-1.42s-2.19-4.34-.29-6.68a6.61,6.61,0,0,1,1-1.08A1.9,1.9,0,0,0,202.53,305.79Zm7.2,16.08c.65.44,1.3.86,1.91,1.35,2.64,2.09,5.48,6.11,8.85,7.19,3.62,1.15,6.39.52,9.74-2.24.72-.6,1-1.17,1.51-1.55,2.38-1.91,4.41-.92,5,1.81.5,2.21-.7,3.64-2.36,5.27-2.75,2.69-4.65,4.06-8.72,4.61-3.05.4-6.47.21-7.43-1.22-1.69-2.53-3.31-4.6-6.53-5.76S209.49,323.51,209.73,321.87Zm13.43-7s.85-1.42,1.1-1.72c2.43-2.87,3.54-.13,6.3-1.75,2.28-1.33.68.05,6.68-1.12C236.69,316.94,230.62,318.73,223.16,314.9Zm5.69,8.54c-4,1.94-11.07.43-12.11-6.55a10.82,10.82,0,0,1,1.48.53c3.59,2.14,3.37,2.07,5.66,2.7S227.53,320.74,228.85,323.44Zm-.29-16c-2.45,1.64-5.16-1.62-7.33.08-2,1.55-.34,4.36-5.87,4.26,1.07-4.56,7.06-9.37,13.49-5.55C228.85,306.21,228.82,307.25,228.56,307.42Zm12.29-9.51a11,11,0,0,1-1.42-.7c-3.33-2.52-2.6-3-4.8-3.91s-2.19-1.33-5.1-3.23C235,288,241.9,290.24,240.85,297.91Zm-.78,7.75-1.22.89c-2.21,1.61-5.31-1.94-8.37-2.22s-5-1.13-7.32-4.27C227.78,296.69,237.15,297,240.07,305.66Zm-12.71-12.73c0,3.83-7.73,2.43-9.89,6s-3.59,6.39-8.52,6.39c0-8,8.24-14.52,18.41-14.52Zm-34.5,10.59c2.45-12.71,19.09-25.55,30.3-25.42C222,295.05,202.9,295,192.86,303.52Zm19.47,35,1.35.75a22.52,22.52,0,0,0,5.58,2c2.45.63,3.27.27,6.53.17C221,345.58,213.8,345.76,212.33,338.49Zm10.83,10.2c15.35-4.85,9.88-23.3,38-25.21C255.32,343.16,236.59,350.13,223.16,348.69Zm20.72-25.21c7.78-2.21,13.92-13.06,10.54-15.78-4.23-3.41-10.17-2.21-10.17-7.62,0-4.29,5.33-7.45-.68-10.65-6.7-3.55-14-.91-14.6-11.33,18.48,0,33.44,16.16,33.58,36.19C262.41,318.63,254.44,323.48,243.88,323.48ZM141.13,174.84c.52-2.36,1.1-6.75,1.7-15.16a164,164,0,0,1,3.69-27c.34-1.64.71-3.41,1.11-5.41.19-1,.39-1.89.58-2.82l.06,4.25.5.25c1.6.82,4.34,2.59,4.83,3.84a63.61,63.61,0,0,1,2.84,11c.48,2.84,1.92,10,5.05,14.65.28.43.56.86.83,1.29,2.11,3.29,4.3,6.71,11.38,10.06a33.22,33.22,0,0,0,18.4,3c6.34-.52,14.41-1.8,20.6-7.13,5.67-4.9,8.52-7.36,11.51-16.95a72.25,72.25,0,0,0,2.82-13l.08-.54c.18-1.22.28-2.23.36-3.07.22-2.28.32-2.71,1.08-3a4.83,4.83,0,0,1,4.46,0c.69.28.79.71,1,3,.08.83.18,1.84.36,3.06l.07.53a73.21,73.21,0,0,0,2.82,13c3,9.59,5.85,12,11.52,16.95,6.19,5.33,14.26,6.61,20.6,7.13,1.36.11,2.79.2,4.31.2a31.64,31.64,0,0,0,14.08-3.22c7.09-3.35,9.28-6.76,11.39-10.06.27-.43.55-.86.83-1.29,3.13-4.69,4.57-11.81,5.05-14.65a63.74,63.74,0,0,1,2.83-11c.5-1.25,3.24-3,4.84-3.84l.5-.25,0-3.8c.16.79.33,1.57.49,2.37.4,2,.76,3.77,1.11,5.41a164,164,0,0,1,3.69,27c.6,8.41,1.17,12.8,1.69,15.16Zm182.11,0c-.35-1.37-1-5.15-1.77-15.37a167.41,167.41,0,0,0-3.75-27.38c-.34-1.63-.71-3.4-1.11-5.39-3.9-19.51-8.81-36.95-29.51-52.77-18.66-14.27-48.5-20.56-55-21.79V3c109.39,7.73,127.32,90.85,144,171.87Z"/><path class="cls-1" d="M257,119.4c-9.1,2.28-14,3.85-16.29,4.61-.8.25-1.33.43-1.67.51l-.77.2.07.78c1,11,2,18.35,3,21.86,2,7,4.27,10,10.21,15.49,5.49,5.11,12.64,6.12,18.26,6.42.86,0,1.76.08,2.71.08a29,29,0,0,0,13-3c6.92-3.27,8.86-6.32,10.68-10a53.92,53.92,0,0,0,4.31-12.56,73,73,0,0,1,2.6-8.85c.68-1.7,4-8.12,4.06-8.18l.51-1-13.86-4.67C292.94,121,271.26,115.85,257,119.4Zm44.4,14.89a75.39,75.39,0,0,0-2.68,9.11,51.42,51.42,0,0,1-4.16,12.17c-1.72,3.43-3.42,6.09-9.82,9.12a28.21,28.21,0,0,1-14.83,2.74c-5.31-.29-12-1.22-17.1-5.93-6.13-5.69-7.94-8.43-9.69-14.64-.94-3.32-1.9-10.3-2.87-20.77l1-.33c2.49-.8,7.13-2.31,16.17-4.56,13.79-3.45,35.73,1.71,35.87,1.74l11.73,4C304.1,128.79,302,132.9,301.43,134.29Z"/><path class="cls-1" d="M220.75,124c-2.34-.76-7.19-2.33-16.3-4.61-14.22-3.55-35.9,1.55-36.9,1.79l-13.78,4.65.51,1c0,.06,3.38,6.48,4.06,8.18a73,73,0,0,1,2.6,8.85,53.92,53.92,0,0,0,4.31,12.56c1.82,3.64,3.76,6.69,10.68,10a29,29,0,0,0,13,3c.95,0,1.85,0,2.71-.08,5.62-.3,12.76-1.31,18.26-6.42,5.94-5.51,8.25-8.53,10.21-15.49,1-3.51,2-10.86,3-21.86l.07-.78-.77-.2C222.07,124.44,221.54,124.26,220.75,124Zm-2.41,22.85c-1.75,6.21-3.56,8.95-9.69,14.64-5.06,4.71-11.8,5.64-17.1,5.93a28.32,28.32,0,0,1-14.83-2.74c-6.4-3-8.11-5.69-9.82-9.12a51.42,51.42,0,0,1-4.16-12.17,75.39,75.39,0,0,0-2.68-9.11c-.56-1.39-2.67-5.5-3.65-7.39L168.06,123c.22-.06,22.16-5.22,35.95-1.77,9,2.25,13.68,3.76,16.17,4.56l1,.33C220.24,136.56,219.28,143.54,218.34,146.86Z"/></svg>